<svg id="logo" xmlns="http://www.w3.org/2000/svg" xmlns:xlink="http://www.w3.org/1999/xlink" viewBox="0 0 260.16 31.81"><defs><style>.cls-1{fill:none;}.cls-2{clip-path:url(#clip-path);}.cls-3{fill:#a01f24;}.cls-4{clip-path:url(#clip-path-2);}.cls-5{fill:#040000;}</style><clipPath id="clip-path" transform="translate(-134.74 -420.03)"><rect class="cls-1" x="134.74" y="420.03" width="31.81" height="31.81"/></clipPath><clipPath id="clip-path-2" transform="translate(-134.74 -420.03)"><rect class="cls-1" x="178.54" y="426.75" width="216.36" height="18.37"/></clipPath></defs><title>logo</title><g class="cls-2"><polygon class="cls-3" points="15.88 0 9.37 6.54 15.88 13.07 22.4 6.54 15.88 0"/><polygon class="cls-3" points="0 15.93 6.52 22.47 13.03 15.93 6.52 9.39 0 15.93"/><polygon class="cls-3" points="9.32 25.28 15.84 31.81 22.35 25.28 15.84 18.74 9.32 25.28"/><polygon class="cls-3" points="18.78 15.79 25.3 22.32 31.81 15.79 25.3 9.25 18.78 15.79"/></g><g id="アートワーク_1" data-name="アートワーク 1"><g class="cls-4"><path class="cls-5" d="M204.61,426.75h2.5l7.13,18.37h-2.57L209.73,440h-7.87l-1.93,5.12h-2.47Zm4.4,11.19-3.24-8.52-3.19,8.52H209Z" transform="translate(-134.74 -420.03)"/><polygon class="cls-5" points="84.38 6.72 86.75 6.72 86.75 22.98 96.27 22.98 95.91 25.09 84.38 25.09 84.38 6.72"/><path class="cls-5" d="M241.56,426.75h2.5l7.13,18.37h-2.57L246.68,440h-7.87l-1.93,5.12h-2.47Zm4.4,11.19-3.24-8.52-3.19,8.52H246Z" transform="translate(-134.74 -420.03)"/><path class="cls-5" d="M285.87,426.75h2.5l7.13,18.37h-2.57L291,440h-7.87l-1.93,5.12h-2.47Zm4.4,11.19L287,429.43l-3.19,8.52h6.43Z" transform="translate(-134.74 -420.03)"/><polygon class="cls-5" points="169.07 8.83 163 8.83 163 6.72 177.54 6.72 177.54 8.83 171.46 8.83 171.46 25.09 169.07 25.09 169.07 8.83"/><path class="cls-5" d="M321.68,426.75h2.5l7.13,18.37h-2.57L326.8,440h-7.87L317,445.12h-2.47Zm4.4,11.19-3.24-8.52-3.19,8.52h6.43Z" transform="translate(-134.74 -420.03)"/><rect class="cls-5" x="201.01" y="22.08" width="2.57" height="3.01"/><polygon class="cls-5" points="208.72 6.72 211.06 6.72 220.4 21.31 220.4 6.72 222.69 6.72 222.69 25.09 220.42 25.09 211.01 10.58 211.01 25.09 208.72 25.09 208.72 6.72"/><polygon class="cls-5" points="229.33 6.72 241.22 6.72 241.22 8.8 231.69 8.8 231.69 14.57 240.7 14.57 240.7 16.68 231.69 16.68 231.69 23.01 241.71 23.01 241.32 25.09 229.33 25.09 229.33 6.72"/><polygon class="cls-5" points="251.69 8.83 245.62 8.83 245.62 6.72 260.16 6.72 260.16 8.83 254.08 8.83 254.08 25.09 251.69 25.09 251.69 8.83"/><polygon class="cls-5" points="53.06 14.49 46.17 14.49 46.17 6.72 43.8 6.72 43.8 25.09 46.17 25.09 46.17 16.7 53.06 16.7 53.06 14.49"/><polygon class="cls-5" points="55.46 6.72 55.46 13.18 55.46 14.49 55.46 16.7 55.46 18.36 55.46 25.09 57.83 25.09 57.83 6.72 55.46 6.72"/><polygon class="cls-5" points="118.54 6.72 121.21 6.72 125.05 21.82 129.04 6.8 131.59 6.8 135.55 21.82 139.36 6.72 141.88 6.72 136.78 25.09 134.29 25.09 130.19 9.73 126.18 25.09 123.76 25.09 118.54 6.72"/></g></g></svg>